<svg xmlns="http://www.w3.org/2000/svg" viewBox="0 0 128 128">
  <circle cx="64" cy="64" r="58" fill="#000" />
  <g transform="translate(54.5,16.7) scale(0.26)">
    <g transform="translate(-561.30664,-37.551858)">
      <path
        d="M 21.962289,-209.61177 V 5.6250001e-5 H 76.450083 V -209.61177 Z M 49.141,-123.07905 c 4.662749,0 9.3258,1.77756 12.883301,5.33496 7.115003,7.1149 7.115003,18.65034 0,25.76514 -7.115002,7.114898 -18.650142,7.114898 -25.765137,0 -7.114005,-7.1148 -7.114005,-18.65024 0,-25.76514 3.557497,-3.5574 8.219087,-5.33496 12.881836,-5.33496 z"
        transform="matrix(1.3333333,0,0,1.3333333,532.02359,359.1093)"
        style="fill:#f472b6;fill-opacity:1"
      />
      <path
        d="m 597.54569,401.95812 -36.21067,-34.5148 h 72.42267 z"
        style="fill:#f472b6;fill-opacity:1;fill-rule:nonzero;stroke:none;stroke-width:1.33333"
      />
      <path
        d="m 597.54569,37.551859 36.212,34.514799 h -72.42267 z"
        style="fill:#f472b6;fill-opacity:1;fill-rule:nonzero;stroke:none;stroke-width:1.33333"
      />
    </g>
  </g>
</svg>
