<svg aria-hidden="true" viewBox="0 0 32 32" xmlns="http://www.w3.org/2000/svg">
  <path
    fill-rule="evenodd"
    clip-rule="evenodd"
    d="M16 28C22.6274 28 28 22.6274 28 16C28 9.37258 22.6274 4 16 4C9.37258 4 4 9.37258 4 16C4 22.6274 9.37258 28 16 28ZM6 15.312C6 14.6207 6.55881 14.0621 7.25049 14.0621C7.93826 14.0621 8.50098 14.6246 8.50098 15.312V16.6674C8.50098 18.3353 6 18.3353 6 16.6674V15.312ZM23.499 15.312C23.499 14.6207 24.0578 14.0621 24.7495 14.0621C25.4412 14.0621 26 14.6246 26 15.312V16.6674C26 18.3353 23.499 18.3353 23.499 16.6674V15.312ZM10.3142 19.4056C10.3142 18.7142 10.873 18.1557 11.5647 18.1557V18.1635C12.2603 18.1635 12.8152 18.722 12.8152 19.4134V20.761C12.8152 22.4289 10.3142 22.4289 10.3142 20.761V19.4056ZM10.3142 11.2224C10.3142 10.531 10.873 9.97246 11.5647 9.97246V9.96465C12.2603 9.96465 12.8152 10.5232 12.8152 11.2146V15.687C12.8152 17.3549 10.3142 17.3549 10.3142 15.687V11.2224ZM19.1848 11.2224C19.1848 10.531 19.7437 9.97246 20.4353 9.97246C21.1231 9.97246 21.6858 10.531 21.6858 11.2224V12.5895C21.6858 14.2574 19.1848 14.2574 19.1848 12.5895V11.2224ZM14.7495 7.24994C14.7495 6.55857 15.3083 6 16 6C16.6917 6 17.2505 6.55857 17.2505 7.24994V8.60534C17.2505 10.2732 14.7495 10.2732 14.7495 8.60534V7.24994ZM14.7495 23.3781C14.7495 22.6867 15.3083 22.1281 16 22.1281V22.1359C16.6917 22.1359 17.2505 22.7023 17.2505 23.3859V24.753C17.2427 26.4209 14.7417 26.4131 14.7495 24.7452V23.3781ZM19.1848 16.3276C19.1848 15.6441 19.7437 15.0777 20.4353 15.0777C21.1231 15.0777 21.6858 15.6402 21.6858 16.3276V20.7688C21.6858 22.4367 19.1848 22.4367 19.1848 20.7688V16.3276ZM14.7495 12.3552C14.7495 11.6716 15.3083 11.1052 16 11.1052V11.1169C16.6917 11.1169 17.2505 11.6755 17.2505 12.3669V19.6282C17.2505 21.2961 14.7495 21.2961 14.7495 19.6282V12.3552Z"
  />
</svg>
