<svg aria-hidden="true" viewBox="0 0 32 32" xmlns="http://www.w3.org/2000/svg">
  <path fill="currentColor" d="M16 4C9.372 4 4 9.372 4 16C4 22.628 9.372 28 16 28C22.628 28 28 22.628 28 16C28 9.372 22.628 4 16 4ZM19.564 16C19.564 14.032 17.968 12.436 16 12.436C14.032 12.436 12.436 14.031 12.436 16C12.436 17.968 14.031 19.564 16 19.564V21.6C12.907 21.6 10.4 19.093 10.4 16C10.4 12.907 12.907 10.4 16 10.4C19.093 10.4 21.6 12.907 21.6 16H19.564ZM23 16C23 12.134 19.866 9 16 9C12.134 9 9 12.134 9 16C9 19.866 12.134 23 16 23V25.333C10.845 25.333 6.667 21.154 6.667 16C6.667 10.845 10.846 6.667 16 6.667C21.155 6.667 25.333 10.846 25.333 16H23Z" />
</svg>
