<svg xmlns="http://www.w3.org/2000/svg" fill="none" viewBox="0 0 96 28" class="h-full w-full max-w-16 md:h-8 md:max-w-20">
    <path fill="currentColor" d="M72.371 6.254c-1.163 0-2.169.348-3.014 1.036q-1.267 1.033-1.975 2.999H67.3q-.353-2.048-1.487-3.041-1.13-.995-3.066-.994-1.662 0-2.957.97-1.295.971-2.06 2.74h-.081V6.667h-6.977v15.92h7.146v-7.829q0-1.309.3-1.923c.197-.41.509-.612.927-.612q.706 0 .994.545c.187.367.284 1.027.284 1.99v7.828h7.147v-7.828q0-1.309.3-1.923c.196-.41.508-.612.927-.612q.705 0 .993.545c.188.367.285 1.027.285 1.99v7.828h7.143V12.47q-.002-3.162-1.157-4.69-1.163-1.526-3.587-1.526zM90.078 16.266q-.22.818-.749 1.2-.53.381-1.43.381c-.745 0-1.305-.19-1.69-.572s-.582-.945-.6-1.69h10.252q0-1.64-.273-3.042-.272-1.405-.818-2.442a6.5 6.5 0 0 0-2.793-2.862q-1.84-.982-4.347-.982-3.815.001-6.353 2.333c-1.69 1.554-2.535 3.51-2.535 6.146q0 3.953 2.29 6.107v.006c1.527 1.433 3.662 2.154 6.407 2.154q3.272 0 5.562-1.5c1.527-.999 2.523-2.362 2.999-4.092l-5.916-1.145zm-3.902-4.705q.49-.476 1.281-.475.574 0 .942.218h-.003q.368.222.558.684.082.165.124.382c.027.146.048.315.066.518H85.6q.083-.843.573-1.324zM15.422 11.477l1.433-1.433a7.3 7.3 0 0 0-.796-1.609c-.982-1.451-2.327-2.181-4.036-2.181q-1.745 0-3.026 1.078-1.282 1.079-1.936 3.066H6.98V6.663H0v20.969h7.17v-7.988h.082q.6 1.663 1.745 2.508t2.727.845q2.619.001 4.21-2.275a7.5 7.5 0 0 0 .84-1.596l-1.352-1.352a4.46 4.46 0 0 1 0-6.298m-5.51 5.304q-.397.71-1.215.709t-1.215-.721q-.395-.723-.396-2.17 0-1.363.42-2.087.424-.72 1.215-.72c.528 0 .903.242 1.173.72q.409.724.409 2.088-.001 1.472-.397 2.18h.006M41.145.368v9.515h-.082Q40.49 8.057 39.4 7.157q-1.09-.901-2.781-.903c-1.782 0-3.211.754-4.296 2.263a7.4 7.4 0 0 0-.863 1.627l1.333 1.333a4.46 4.46 0 0 1 0 6.298l-1.4 1.4c.23.614.512 1.168.86 1.656q1.553 2.169 4.23 2.17 1.775 0 2.986-1.107c.81-.736 1.403-1.811 1.788-3.229h.081v3.926h6.98V.368h-7.1739999999999995m-.394 16.416q-.397.71-1.215.709t-1.215-.721q-.396-.724-.397-2.17 0-1.363.421-2.086.424-.722 1.215-.721h.003q.768 0 1.173.72c.272.482.409 1.182.409 2.088 0 .981-.134 1.705-.397 2.181z"></path>
    <path fill="currentColor" d="m22.395 7.377-5.535 5.535a2.424 2.424 0 0 0 0 3.427l5.535 5.535c.947.947 2.481.947 3.428 0l5.535-5.535a2.424 2.424 0 0 0 0-3.427l-5.535-5.535a2.423 2.423 0 0 0-3.428 0"></path>
</svg>